<svg xmlns="http://www.w3.org/2000/svg" width="600" height="400" viewBox="0 0 600 400">
  <defs>
    <!-- Gradients -->
    <linearGradient id="coverGradient" x1="0%" y1="0%" x2="100%" y2="100%">
      <stop offset="0%" style="stop-color:#1a75ff;stop-opacity:1" />
      <stop offset="100%" style="stop-color:#0056b3;stop-opacity:1" />
    </linearGradient>
    <linearGradient id="pagesGradient" x1="0%" y1="0%" x2="100%" y2="0%">
      <stop offset="0%" style="stop-color:#f8f9fa;stop-opacity:1" />
      <stop offset="100%" style="stop-color:#ffffff;stop-opacity:1" />
    </linearGradient>
    <!-- Shadow Filter -->
    <filter id="dropShadow" x="-20%" y="-20%" width="140%" height="140%">
      <feGaussianBlur in="SourceAlpha" stdDeviation="5"/>
      <feOffset dx="3" dy="3" result="offsetblur"/>
      <feComponentTransfer>
        <feFuncA type="linear" slope="0.3"/>
      </feComponentTransfer>
      <feMerge>
        <feMergeNode/>
        <feMergeNode in="SourceGraphic"/>
      </feMerge>
    </filter>
  </defs>
  
  <style>
    .book-cover { fill: url(#coverGradient); }
    .book-pages { fill: url(#pagesGradient); stroke: #dee2e6; }
    .book-spine { fill: #0056b3; }
    .book-detail { fill: none; stroke: rgba(255,255,255,0.5); stroke-width: 1.5; }
    .book-title { fill: #ffffff; filter: url(#dropShadow); }
    .book-decoration { fill: rgba(255,255,255,0.2); }
  </style>
  
  <!-- Background Elements -->
  <circle cx="100" cy="350" r="80" fill="#007bff" opacity="0.1" />
  <circle cx="500" cy="50" r="60" fill="#28a745" opacity="0.1" />
  <circle cx="450" cy="300" r="70" fill="#6c757d" opacity="0.1" />
  
  <!-- Book -->
  <g transform="translate(250, 100)" filter="url(#dropShadow)">
    <!-- Book Pages -->
    <path class="book-pages" d="M 20,20 
      L 280,20 
      L 280,180 
      L 20,180 
      C 40,180 40,20 20,20" />
    
    <!-- Book Cover -->
    <path class="book-cover" d="M 0,0 
      L 260,0 
      L 260,200 
      L 0,200 
      C 20,200 20,0 0,0" />
    
    <!-- Elegant Decorative Elements -->
    <path class="book-decoration" d="M 40,30 L 220,30 L 220,35 L 40,35 Z" />
    <path class="book-decoration" d="M 40,165 L 220,165 L 220,170 L 40,170 Z" />
    
    <!-- Corner Decorations -->
    <path class="book-decoration" d="M 40,40 L 60,40 L 60,60 L 55,60 L 55,45 L 40,45 Z" />
    <path class="book-decoration" d="M 200,40 L 220,40 L 220,60 L 215,60 L 215,45 L 200,45 Z" />
    <path class="book-decoration" d="M 40,140 L 60,140 L 60,160 L 55,160 L 55,145 L 40,145 Z" />
    <path class="book-decoration" d="M 200,140 L 220,140 L 220,160 L 215,160 L 215,145 L 200,145 Z" />
    
    <!-- Book Spine Details -->
    <line x1="20" y1="20" x2="20" y2="180" class="book-detail" />
    
    <!-- Subtle Lines -->
    <line x1="40" y1="60" x2="220" y2="60" class="book-detail" opacity="0.3" />
    <line x1="40" y1="90" x2="220" y2="90" class="book-detail" opacity="0.3" />
    <line x1="40" y1="120" x2="220" y2="120" class="book-detail" opacity="0.3" />
    
    <!-- Book Title -->
    <text x="130" y="110" font-family="Arial" font-size="28" class="book-title" text-anchor="middle" font-weight="bold">AcademyS</text>
  </g>
</svg> 